<?xml version="1.0" encoding="UTF-8" standalone="no"?>
<!-- Created with Inkscape (http://www.inkscape.org/) -->

<svg
   width="160.84209mm"
   height="106.15706mm"
   viewBox="0 0 160.84209 106.15706"
   version="1.1"
   id="svg5"
   xml:space="preserve"
   inkscape:export-filename="ai_karty_logo2.svg"
   inkscape:export-xdpi="23.68783"
   inkscape:export-ydpi="23.68783"
   sodipodi:docname="ai_karty_logo.svg"
   xmlns:inkscape="http://www.inkscape.org/namespaces/inkscape"
   xmlns:sodipodi="http://sodipodi.sourceforge.net/DTD/sodipodi-0.dtd"
   xmlns="http://www.w3.org/2000/svg"
   xmlns:svg="http://www.w3.org/2000/svg"><sodipodi:namedview
     id="namedview7"
     pagecolor="#ffffff"
     bordercolor="#000000"
     borderopacity="0.25"
     inkscape:showpageshadow="2"
     inkscape:pageopacity="0.0"
     inkscape:pagecheckerboard="0"
     inkscape:deskcolor="#d1d1d1"
     inkscape:document-units="mm"
     showgrid="false" /><defs
     id="defs2" /><g
     inkscape:label="Layer 1"
     inkscape:groupmode="layer"
     id="layer1"
     transform="translate(-21.743554,-52.738787)"><g
       id="g7292"
       style="fill:#1362f1;fill-opacity:1"><path
         style="fill:#1362f1;fill-opacity:1;stroke-width:0.264583"
         d="m 113.20075,79.54394 c 1.58894,-1.070784 2.03502,-2.987259 1.06542,-4.577296 -1.10489,-1.811883 1.30987,-1.698615 -36.212884,-1.698615 h -33.8537 l -0.89902,0.598805 c -1.16086,0.7732 -1.92726,2.302346 -1.69162,3.375181 0.20603,0.938059 1.30665,2.33035 2.09393,2.648839 0.30291,0.122539 15.86244,0.230346 34.57673,0.23957 l 34.025974,0.01677 z"
         id="path7153" /><path
         style="fill:#1362f1;fill-opacity:1;stroke-width:0.264583"
         d="m 90.279179,92.68976 c 0.73568,-0.802825 0.90547,-1.200068 0.90466,-2.116666 -0.001,-1.42852 -0.72425,-2.629805 -1.92599,-3.200064 -0.84641,-0.401646 -2.91777,-0.441844 -22.76817,-0.441844 -14.8253,0 -22.07623,0.09061 -22.58189,0.282208 -1.06113,0.40205 -1.87291,1.240115 -2.22003,2.29191 -0.41043,1.243603 0.25825,3.007217 1.42483,3.757938 0.83669,0.53843 1.04393,0.542645 23.55253,0.479015 l 22.70841,-0.0642 z"
         id="path7151" /><path
         id="path7149"
         style="fill:#1362f1;fill-opacity:1;stroke-width:0.264583"
         d="m 102.05155,52.738837 c -34.184331,-0.0024 -68.362181,0.140471 -69.455711,0.431498 -2.2161,0.589834 -4.23405,1.727746 -6.02392,3.397208 -1.92172,1.792412 -3.08389,3.507305 -4.03903,5.960877 l -0.68782,1.766817 -0.07441,40.481253 c -0.0668,36.31482 -0.0311,40.67885 0.34881,42.40051 1.23898,5.61535 5.43223,9.97057 10.86497,11.2851 1.3252,0.32066 9.99594,0.38125 57.45386,0.39997 l 55.893231,0.0217 v -0.0202 c 14.30963,0.0606 24.37084,0.0418 24.95352,-0.10749 2.22142,-0.56935 4.24973,-1.68849 6.05492,-3.34139 1.93817,-1.77462 3.11606,-3.47848 4.09381,-5.92315 l 0.70383,-1.76062 0.44804,-42.05221 h -0.005 l -0.0584,-20.67936 -0.0754,-20.703646 -0.68781,-1.767334 c -1.83226,-4.706664 -5.58706,-8.143138 -10.21385,-9.348267 -1.11803,-0.291208 -35.30859,-0.438935 -69.49292,-0.441316 z m -67.242411,6.794417 h 67.336461 67.33646 l 1.49758,0.735356 c 1.64477,0.807713 3.04594,2.197076 3.98115,3.948596 l 0.60668,1.136881 0.0724,20.174479 0.0419,20.188434 c 0,0 -0.004,0.008 0.004,0.006 l -0.41702,40.88536 -0.71934,1.33325 c -0.85973,1.59322 -2.5074,3.11735 -4.19148,3.87728 l -1.22783,0.55397 -22.79861,-0.21032 v -0.0253 l -2.49493,0.003 c -0.053,-0.0767 -42.0424,0.0424 -42.0424,0.0424 l -9.504331,0.009 c -31.24992,0.0316 -54.90929,-0.047 -56.09993,-0.18655 -2.5799,-0.30226 -4.406,-1.24803 -5.79138,-2.99982 -1.93796,-2.45047 -1.82148,0.46744 -1.74408,-43.84487 l 0.06925,-39.806353 0.70693,-1.33997 c 0.845,-1.60107 2.47883,-3.140106 4.15582,-3.915523 z" /><path
         style="fill:#1362f1;fill-opacity:1;stroke-width:0.264583"
         d="m 129.15538,139.88399 c 8.11099,-4.74996 7.9563,-4.67331 9.10504,-4.51184 0.56832,0.0799 3.70841,1.7343 7.82654,4.12355 7.01756,4.07145 8.12014,4.53165 9.91347,4.13777 1.16907,-0.25677 2.79631,-1.89741 3.18974,-3.21599 0.30068,-1.0077 0.19526,-1.73128 -1.29383,-8.88067 -0.89165,-4.28096 -1.62117,-7.99014 -1.62117,-8.24261 0,-1.04224 1.00638,-2.17595 5.22314,-5.88397 6.01741,-5.29142 7.16486,-6.41447 7.79137,-7.62569 0.72588,-1.40331 0.56597,-3.43181 -0.38365,-4.86678 -1.16733,-1.76395 -2.11169,-2.04284 -9.98503,-2.94873 -7.73851,-0.89039 -8.68696,-1.08098 -9.64104,-1.93741 -0.38432,-0.344986 -1.86857,-3.283006 -3.6106,-7.147091 -1.62691,-3.608715 -3.21475,-6.942465 -3.52853,-7.408333 -1.21379,-1.80209 -4.29607,-2.650648 -6.13699,-1.689528 -1.48865,0.777205 -2.22299,1.977358 -5.29132,8.647702 -1.70693,3.710781 -3.26857,7.004504 -3.47031,7.319394 -0.67258,1.049836 -1.93367,1.341566 -9.46392,2.189286 -4.07458,0.4587 -7.8055,0.96028 -8.29092,1.11462 -2.8309,0.90011 -4.40604,4.85501 -2.86831,7.20188 0.41741,0.63703 2.81791,2.85525 8.86674,8.19343 1.85698,1.63881 3.43725,3.26165 3.68789,3.78726 0.4276,0.89668 0.40046,1.11284 -1.08488,8.6418 -0.83789,4.24716 -1.51842,8.21052 -1.51229,8.80747 0.0133,1.2894 0.81174,2.59729 2.13411,3.49559 0.7744,0.52605 1.17062,0.60842 2.50725,0.52118 1.4889,-0.0972 1.98187,-0.33455 7.9375,-3.82229 z"
         id="path7145" /></g></g></svg>
